<svg xmlns="http://www.w3.org/2000/svg" viewBox="0 0 469.21 469.21"><path d="M469.21 125.64v217.94a35.73 35.73 0 0 1-35.69 35.69H35.7A35.73 35.73 0 0 1 0 343.56V125.63a35.73 35.73 0 0 1 35.7-35.69h397.82a35.73 35.73 0 0 1 35.69 35.7zm-15 217.94V125.63a20.71 20.71 0 0 0-20.69-20.7H35.7a20.71 20.71 0 0 0-20.7 20.7v217.94a20.71 20.71 0 0 0 20.7 20.69h397.82a20.71 20.71 0 0 0 20.69-20.7z"/><path d="M432.02 278.77v36.97a7.5 7.5 0 0 1-7.5 7.5h-36.98a7.5 7.5 0 0 1-7.5-7.5v-36.97a7.5 7.5 0 0 1 7.5-7.5h36.98a7.5 7.5 0 0 1 7.5 7.5zm-15 29.48v-21.97h-21.98v21.97h21.98zM432.02 216.12v36.98a7.5 7.5 0 0 1-7.5 7.5h-36.98a7.5 7.5 0 0 1-7.5-7.5v-36.98a7.5 7.5 0 0 1 7.5-7.5h36.98a7.5 7.5 0 0 1 7.5 7.5zm-15 29.47v-21.98h-21.98v21.98h21.98zM432.02 153.47v36.97a7.5 7.5 0 0 1-7.5 7.5h-36.98a7.5 7.5 0 0 1-7.5-7.5v-36.97a7.5 7.5 0 0 1 7.5-7.5h36.98a7.5 7.5 0 0 1 7.5 7.5zm-15 29.47v-21.97h-21.98v21.97h21.98z"/><path fill="#3dd0f2" d="M395.04 286.27h21.98v21.97h-21.98z"/><path fill="#f48c6c" d="M395.04 160.97h21.98v21.97h-21.98z"/><path d="M369.36 278.77v36.97c0 4.15-3.35 7.5-7.5 7.5h-36.97a7.49 7.49 0 0 1-7.5-7.5v-36.97a7.5 7.5 0 0 1 7.5-7.5h36.97a7.5 7.5 0 0 1 7.5 7.5zm-15 29.48v-21.97h-21.97v21.97h21.97zM369.36 216.12v36.98a7.5 7.5 0 0 1-7.5 7.5h-36.97a7.5 7.5 0 0 1-7.5-7.5v-36.98a7.5 7.5 0 0 1 7.5-7.5h36.97a7.5 7.5 0 0 1 7.5 7.5zm-15 29.47v-21.98h-21.97v21.98h21.97zM369.36 153.47v36.97c0 4.15-3.35 7.5-7.5 7.5h-36.97a7.49 7.49 0 0 1-7.5-7.5v-36.97a7.5 7.5 0 0 1 7.5-7.5h36.97a7.5 7.5 0 0 1 7.5 7.5zm-15 29.47v-21.97h-21.97v21.97h21.97zM306.71 278.77v36.97a7.5 7.5 0 0 1-7.5 7.5h-36.98a7.5 7.5 0 0 1-7.5-7.5v-36.97a7.5 7.5 0 0 1 7.5-7.5h36.98a7.5 7.5 0 0 1 7.5 7.5zm-15 29.48v-21.97h-21.98v21.97h21.98zM306.71 216.12v36.98a7.5 7.5 0 0 1-7.5 7.5h-36.98a7.5 7.5 0 0 1-7.5-7.5v-36.98a7.5 7.5 0 0 1 7.5-7.5h36.98a7.5 7.5 0 0 1 7.5 7.5zm-15 29.47v-21.98h-21.98v21.98h21.98zM306.71 153.47v36.97a7.5 7.5 0 0 1-7.5 7.5h-36.98a7.5 7.5 0 0 1-7.5-7.5v-36.97a7.5 7.5 0 0 1 7.5-7.5h36.98a7.5 7.5 0 0 1 7.5 7.5zm-15 29.47v-21.97h-21.98v21.97h21.98z"/><path fill="#f48c6c" d="M269.73 160.97h21.98v21.97h-21.98z"/><path d="M238.11 161.97v145.26a38.05 38.05 0 0 1-38 38.01H73.99a38.05 38.05 0 0 1-38.01-38V161.98a38.05 38.05 0 0 1 38.01-38.01h126.12c20.95 0 38 17.04 38 38zm-15 145.27V161.98a23.04 23.04 0 0 0-23-23.01H73.99a23.04 23.04 0 0 0-23.01 23v145.27a23.03 23.03 0 0 0 23.01 23h126.12c12.68 0 23-10.31 23-23z"/><path d="M223.11 161.97v145.26a23.03 23.03 0 0 1-23 23.01H73.99a23.03 23.03 0 0 1-23.01-23V161.98a23.04 23.04 0 0 1 23.01-23.01h126.12c12.68 0 23 10.32 23 23zm-10.52 143.74V163.5c0-7.72-6.28-14-14-14H75.5c-7.72 0-14 6.28-14 14v142.22c0 7.73 6.28 14.01 14 14.01h123.09c7.72 0 14-6.28 14-14z" fill="#f48c6c"/><path d="M212.59 163.5v142.22c0 7.73-6.28 14-14 14H75.5c-7.72 0-14-6.28-14-14V163.5c0-7.72 6.28-14.01 14-14.01h123.09c7.72 0 14 6.28 14 14zm-15 141.23V164.48H76.5v140.25h121.09z"/><path d="M197.59 164.49v140.24H76.5V164.48h121.09zm-15.17 67.28a7.51 7.51 0 0 0-1.92-8.25l-38.38-35.27a7.51 7.51 0 0 0-10.15 0l-38.38 35.27a7.51 7.51 0 0 0 5.07 13.03h2.88v38.88a7.5 7.5 0 0 0 7.5 7.5h56.01a7.5 7.5 0 0 0 7.5-7.5v-38.88h2.88a7.5 7.5 0 0 0 6.99-4.78z" fill="#3dd0f2"/><path d="M180.5 223.53a7.51 7.51 0 0 1-5.07 13.03h-2.88v38.88a7.5 7.5 0 0 1-7.5 7.5h-56.01a7.5 7.5 0 0 1-7.5-7.5v-38.88h-2.88a7.51 7.51 0 0 1-5.07-13.03l38.38-35.27a7.51 7.51 0 0 1 10.15 0l38.38 35.27zm-22.95 44.4v-31.38h-41.01v31.38h41.01zm-39.64-46.38h38.27l-19.13-17.59-19.14 17.6z"/></svg>