<svg xmlns="http://www.w3.org/2000/svg" viewBox="0 0 433.09 433.09"><path d="M349.05 132.5c0 20.77-4.68 40.66-13.9 59.12-16.42 32.88-25.1 69.13-25.1 104.82v42.77c0 37.27-28.53 68-64.9 71.53-3.2 12.82-14.81 22.35-28.61 22.35s-25.41-9.53-28.62-22.35c-36.36-3.53-64.87-34.26-64.87-71.53v-42.06c0-36.95-8.48-73.04-24.51-104.35a131.09 131.09 0 0 1-14.5-59.77C83.77 60.7 142.37 1.01 214.68.01a131.66 131.66 0 0 1 94.9 38.14 131.55 131.55 0 0 1 39.48 94.35zm-27.32 52.42a116.3 116.3 0 0 0 12.32-52.42c0-31.7-12.43-61.4-35-83.67a116.69 116.69 0 0 0-84.18-33.82c-64.12.9-116.08 53.81-115.82 117.96a116.11 116.11 0 0 0 12.84 53c17.1 33.41 26.16 71.86 26.16 111.18v8.94h39.52v-77.4l-18.85-18.85a20.02 20.02 0 0 1-28.15-18.25c0-11.03 8.97-20 20-20a20.02 20.02 0 0 1 18.55 27.44l21.26 21.25a7.54 7.54 0 0 1 2.19 5.31v80.5h14.75V121.11a20.01 20.01 0 0 1-12.5-18.52c0-11.03 8.97-20 20-20s20 8.97 20 20c0 8.37-5.18 15.55-12.5 18.52V306.1h14.75V168.34c0-1.99.79-3.9 2.2-5.3l21.25-21.26a20.02 20.02 0 0 1 18.55-27.44c11.03 0 20 8.97 20 20s-8.97 20-20 20c-2.9 0-5.65-.64-8.14-1.75l-18.86 18.85V306.1h42.98v-9.65c0-38 9.22-76.57 26.68-111.52zM295.05 336.1v-15h-157v15h157zm-1.26 15h-154.5a56.87 56.87 0 0 0 5.52 15h143.47a56.52 56.52 0 0 0 5.5-15zm-9.72-216.75a5 5 0 1 0-10 0 5 5 0 0 0 10 0zM276.6 381.1H156.48a56.72 56.72 0 0 0 38.44 15h43.25c14.8 0 28.3-5.7 38.44-15zm-47.68 30h-24.77c2.54 4.18 7.13 7 12.38 7s9.84-2.82 12.39-7zm-9.11-308.5a5 5 0 1 0-10 0 5 5 0 0 0 10 0zm-64.25 89a5 5 0 1 0-10 0 5 5 0 0 0 10 0z"/><path fill="#3dd0f2" d="M138.05 321.09h157v15h-157zM139.3 351.1h154.49a56.52 56.52 0 0 1-5.51 15H144.8a56.87 56.87 0 0 1-5.51-15z"/><path d="M279.07 129.34a5 5 0 1 1 0 10 5 5 0 0 1 0-10z" fill="#f48c6c"/><path d="M156.48 381.1H276.6a56.68 56.68 0 0 1-38.44 15h-43.25c-14.8 0-28.3-5.7-38.44-15z" fill="#3dd0f2"/><path d="M214.82 97.6a5 5 0 1 1 0 10 5 5 0 0 1 0-10zM150.57 186.6a5 5 0 1 1 0 10 5 5 0 0 1 0-10z" fill="#f48c6c"/></svg>