<svg xmlns="http://www.w3.org/2000/svg" viewBox="0 0 462.15 462.15"><path d="M376.29 201.72c47.34 0 85.86 38.52 85.86 85.87 0 47.34-38.52 85.86-85.86 85.86H107.73C48.33 373.45 0 325.12 0 265.73 0 206.33 48.33 158 107.73 158c17.53 0 34.62 4.23 49.99 12.3a110.68 110.68 0 0 1 107.04-81.6c61.2 0 110.99 49.8 110.99 111l-.01 2.02h.55zm70.86 85.86c0-39.08-31.79-70.87-70.86-70.87-2.51 0-5.11.14-7.72.43a7.52 7.52 0 0 1-8.27-8.17c.3-3.16.45-6.27.45-9.27 0-52.93-43.06-96-95.99-96a95.71 95.71 0 0 0-94.57 79.57 7.49 7.49 0 0 1-11.52 4.98A92.33 92.33 0 0 0 107.73 173C56.6 173 15 214.6 15 265.72c0 51.12 41.6 92.72 92.73 92.72h20.83v-36.27l-20.41-20.4c-2.2.83-4.57 1.31-7.06 1.31-11.03 0-20-8.98-20-20 0-11.03 8.97-20 20-20s20 8.97 20 20c0 3.04-.7 5.91-1.92 8.5l22.19 22.18a7.47 7.47 0 0 1 2.2 5.3v39.38h35.7v-71.73l-13.67-13.67a19.72 19.72 0 0 1-6.55 1.13c-11.03 0-20-8.97-20-20s8.97-20 20-20 20 8.97 20 20c0 3.22-.78 6.26-2.15 8.96l15.17 15.17a7.47 7.47 0 0 1 2.2 5.3v74.84h35.69v-158.1a20.04 20.04 0 0 1-12.5-18.53c0-11.03 8.97-20 20-20s20 8.97 20 20c0 8.38-5.18 15.56-12.5 18.53v158.1h35.7v-109.7c0-1.99.79-3.9 2.19-5.3L298 228.27a19.86 19.86 0 0 1-2.14-8.96c0-11.03 8.97-20 20-20s20 8.97 20 20-8.97 20-20 20c-2.3 0-4.5-.4-6.56-1.13l-13.65 13.67v106.6h35.7v-51.16c0-1.99.79-3.9 2.19-5.3l22.19-22.19a19.8 19.8 0 0 1-1.92-8.49c0-11.03 8.97-20 20-20 11.02 0 20 8.97 20 20s-8.98 20-20 20a20 20 0 0 1-7.07-1.3l-20.39 20.4v48.03h29.94c39.07 0 70.86-31.79 70.86-70.86zm-68.34-16.26a5 5 0 1 0-10.02.01 5 5 0 0 0 10.02-.01zm-57.95-52a5 5 0 1 0-10.02.01 5 5 0 0 0 10.02-.02zm-78.41-37.5a5 5 0 1 0-10 0 5 5 0 0 0 10 0zm-78.41 72.36a5 5 0 1 0-10 0 5 5 0 0 0 10 0zm-57.95 28.9a5 5 0 1 0-10 0 5 5 0 0 0 10 0z"/><path d="M376.29 216.72c39.07 0 70.86 31.79 70.86 70.87 0 39.07-31.79 70.86-70.86 70.86h-29.94V310.4l20.39-20.4a20 20 0 0 0 7.07 1.3c11.02 0 20-8.96 20-20s-8.98-20-20-20c-11.03 0-20 8.98-20 20 0 3.05.7 5.92 1.92 8.5L333.54 302a7.5 7.5 0 0 0-2.19 5.3v51.15h-35.7v-106.6l13.65-13.66c2.06.72 4.26 1.13 6.56 1.13 11.03 0 20-8.97 20-20s-8.97-20-20-20-20 8.97-20 20c0 3.22.78 6.26 2.14 8.96l-15.16 15.17a7.5 7.5 0 0 0-2.19 5.3v109.7h-35.7v-158.1a20.02 20.02 0 0 0 12.5-18.53c0-11.03-8.97-20-20-20s-20 8.97-20 20c0 8.37 5.18 15.55 12.5 18.53v158.1h-35.69V283.6c0-2-.79-3.9-2.2-5.3l-15.17-15.17a19.74 19.74 0 0 0 2.15-8.96c0-11.04-8.97-20-20-20s-20 8.96-20 20c0 11.02 8.97 20 20 20 2.3 0 4.5-.42 6.55-1.14l13.67 13.67v71.73h-35.7v-39.38c0-1.99-.79-3.9-2.2-5.3l-22.19-22.19a19.8 19.8 0 0 0 1.92-8.49c0-11.03-8.97-20-20-20s-20 8.97-20 20c0 11.02 8.97 20 20 20 2.49 0 4.86-.48 7.06-1.32l20.41 20.41v36.27h-20.83c-51.13 0-92.73-41.6-92.73-92.72C15 214.6 56.6 173 107.73 173a92.33 92.33 0 0 1 50.94 15.26 7.49 7.49 0 0 0 11.52-4.98 95.71 95.71 0 0 1 94.57-79.56c52.93 0 95.99 43.07 95.99 96 0 3-.15 6.1-.45 9.27a7.51 7.51 0 0 0 8.27 8.17c2.61-.3 5.21-.44 7.72-.44z" fill="#3dd0f2"/></svg>