<svg xmlns="http://www.w3.org/2000/svg" xmlns:xlink="http://www.w3.org/1999/xlink" version="1.1" x="0px" y="0px" viewBox="0 0 100 100" enable-background="new 0 0 100 100" xml:space="preserve"><path d="M49.911,32.212c9.568,0,17.333,7.765,17.333,17.333c0,0.227-0.058,0.438-0.067,0.663l17.4,17.4V28.746  c0-3.813-3.12-6.933-6.933-6.933H66.655l-6.344-6.933h-20.8l-3.662,4.002l13.398,13.398C49.473,32.271,49.684,32.212,49.911,32.212z" fill="#ddd"/><path d="M90.743,85.087l-9.102-9.102L64.497,58.841l-4.58-4.58L45.196,39.54l-4.58-4.58L27.469,21.812L14.913,9.257l-5.656,5.656  l8.524,8.524c-1.534,1.274-2.536,3.171-2.536,5.309v41.6c0,3.813,3.12,6.933,6.933,6.933h49.445l13.464,13.464L90.743,85.087z   M49.911,66.879c-9.568,0-17.333-7.765-17.333-17.333c0-3.241,0.916-6.253,2.471-8.84l4.629,4.629  c-0.541,1.299-0.861,2.713-0.861,4.211c0,6.127,4.967,11.093,11.093,11.093c1.498,0,2.912-0.32,4.211-0.861l4.629,4.629  C56.165,65.964,53.152,66.879,49.911,66.879z" fill="#ddd"/></svg>