<?xml version="1.0" encoding="utf-8"?>
<svg xmlns="http://www.w3.org/2000/svg" viewBox="0 0 128 128">
	<circle cx="64" cy="64" r="64" fill="#4AC6C6"/>
	<path fill="#4A2593" d="M40.3 109.7h-2c-2 0-3.3-1.5-3.3-3.2V94c0-1.8 1.4-3.3 3.2-3.3h2c1.8 0 3.3 1.5 3.3 3.2v12c0 1.3-1.5 3-3.2 3zm48.7 0h-2c-1.8 0-3.3-1.5-3.3-3.2V94c0-1.8 1.5-3.3 3.2-3.3h2c1 0 3 1.5 3 3.2v12c0 1.3-2 3-3 3z"/>
	<ellipse cx="63.8" cy="74.7" fill="#4A2593" rx="43.6" ry="30"/>
	<ellipse cx="64" cy="67.7" fill="#7F4CBF" rx="50.3" ry="30"/>
	<path fill="#FFF" d="M94.8 48.6v-2c0-17.2-14-31.2-31.2-31.2-17 0-30.7 13.5-31.2 30.3V54c.3 9.6 5 16.4 12.4 20.3h37.6c7.6-4 12.4-11 12.4-21.2v-4z"/>
	<path fill="#7F4CBF" d="M32.5 44.3V54c.3 16.6 14 24.5 31 24.5C81 78.5 95 70.3 95 53v-9c-9-4-19.6-6.5-31-6.5-12 0-23 2.5-31.5 6.7z" opacity=".1"/>
	<path fill="#59AFE1" d="M63.6 28.3c-10.4 0-18.8 8.4-18.8 18.8v28c5.2 3 11.7 4.4 18.8 4.4 7 0 13.6-1.4 18.8-4.2V47c0-10.3-8.4-18.7-18.8-18.7z"/>
	<circle cx="63.9" cy="50.7" r="11.1" fill="#FFF"/>
	<circle cx="63.5" cy="50.6" r="4.4" fill="#2A5083"/>
</svg>